<?xml version="1.0" standalone="no"?>
<!DOCTYPE svg PUBLIC "-//W3C//DTD SVG 20010904//EN"
 "http://www.w3.org/TR/2001/REC-SVG-20010904/DTD/svg10.dtd">
<svg version="1.0" xmlns="http://www.w3.org/2000/svg"
 width="1121.000000pt" height="2125.000000pt" viewBox="0 0 1121.000000 2125.000000"
 preserveAspectRatio="xMidYMid meet">

<g transform="translate(0.000000,2125.000000) scale(0.100000,-0.100000)"
fill="#000000" stroke="none">
<path d="M630 16140 l0 -2440 1960 0 1960 0 0 2440 0 2440 -1960 0 -1960 0 0
-2440z"/>
<path d="M6750 16140 l0 -2440 1915 0 1915 0 0 2440 0 2440 -1915 0 -1915 0 0
-2440z"/>
<path d="M630 7105 l0 -4425 1960 0 1960 0 0 4425 0 4425 -1960 0 -1960 0 0
-4425z"/>
<path d="M6750 7105 l0 -4425 1915 0 1915 0 0 4425 0 4425 -1915 0 -1915 0 0
-4425z"/>
</g>
</svg>
